# xmcd
#
# Track frame offsets:
#	150
#	15906
#	35094
#	52838
#	69966
#	87885
#	103940
#	126442
#	148923
#	163184
#	177777
#	193819
#	210967
#	230286
#	247533
#	267586
#	285912
#
# Disc length: 4060 seconds
#
# Revision: 1
# Processed by: cddbd v1.5.2PL0 Copyright (c) Steve Scherf et al.
# Submitted via: audiograbber 1.83.01
#
DISCID=e50fda11
DTITLE=Various Artist - ESP486-05
DYEAR=2005
DGENRE=Country
TTITLE0=JO DEE MESSINA - MY GIVE A DAMN'S BUSTED
TTITLE1=SARA EVANS - A REAL FINE PLACE TO START
TTITLE2=CARRIE UNDERWOOD - JESUS, TAKE THE WHEEL
TTITLE3=LeANN RIMES - PROBABLY WOULDN'T BE THIS WAY
TTITLE4=RHONDA VINCENT and THE RAGE - I'VE FORGOTTEN YOU
TTITLE5=GRETCHEN WILSON - HOMEWRECKER
TTITLE6=SUGARLAND - STAND BACK UP
TTITLE7=TRINA YEARWOOD - GEORGIA RAIN
TTITLE8=TRICK PONY - AIN'T WASTIN' GOOD WHISKEY ON YOU
TTITLE9=MIRANDA LAMBERT - KEROSENE
TTITLE10=CATHERINE BRILL and ELTON JOHN - WHERE WE BOTH SAY GOODBYE
TTITLE11=AMBER DOTSON - I'LL TRY ANYTHING
TTITLE12=LITTLE BIG TOWN - BOONDOCKS
TTITLE13=JAMIE O'NEAL - SOMEBODY'S HERO
TTITLE14=FAITH HILL - LIKE WE NEVER LOVED AT ALL
TTITLE15=REBA McENTIRE - YOU'RE GONNA BE
TTITLE16=KATRINA ELAM - I WANT A COWBOY
EXTD=
EXTT0=
EXTT1=
EXTT2=
EXTT3=
EXTT4=
EXTT5=
EXTT6=
EXTT7=
EXTT8=
EXTT9=
EXTT10=
EXTT11=
EXTT12=
EXTT13=
EXTT14=
EXTT15=
EXTT16=
PLAYORDER=
